<svg width="146" height="144" viewBox="0 0 146 144" fill="none" xmlns="http://www.w3.org/2000/svg">
<g filter="url(#filter0_d_5_34)">
<rect x="10" y="10" width="126" height="122" rx="34" fill="black"/>
<rect x="10.5" y="10.5" width="125" height="121" rx="33.5" stroke="white"/>
</g>
<rect width="144" height="144" rx="43" fill="black" fill-opacity="0.01"/>
<g filter="url(#filter1_d_5_34)">
<mask id="path-4-outside-1_5_34" maskUnits="userSpaceOnUse" x="30" y="43.619" width="81" height="53" fill="black">
<rect fill="white" x="30" y="43.619" width="81" height="53"/>
<path d="M40.816 80.115C40.816 83.827 42.3947 85.683 45.552 85.683C49.008 85.683 51.3333 84.4884 52.528 82.099C52.9547 81.2457 53.168 80.1577 53.168 78.835C53.168 77.4697 52.848 76.211 52.208 75.059C51.1413 73.2244 49.3067 71.1977 46.704 68.979C42.3947 65.3097 40.24 61.5124 40.24 57.587C40.24 53.619 41.4773 50.5684 43.952 48.435C46.4267 46.3017 49.264 45.235 52.464 45.235C55.664 45.235 58.2027 46.0457 60.08 47.667C61.9573 49.2884 62.896 51.7204 62.896 54.963C62.896 57.0964 62.1707 58.9524 60.72 60.531C59.312 62.1097 57.4347 63.091 55.088 63.475C56.1547 64.371 57.2213 65.2884 58.288 66.227C59.312 67.1657 60.2507 68.1897 61.104 69.299C62.9813 71.8164 63.92 74.8244 63.92 78.323C63.92 80.755 63.344 82.9524 62.192 84.915C61.0827 86.8777 59.6107 88.5417 57.776 89.907C55.984 91.2297 53.9573 92.2537 51.696 92.979C49.4347 93.7044 47.3227 94.067 45.36 94.067C41.1787 94.067 37.936 93.107 35.632 91.187C32.944 89.011 31.6 85.875 31.6 81.779C31.6 79.091 32.4747 76.4884 34.224 73.971C35.9733 71.4537 37.8293 70.195 39.792 70.195C41.328 70.195 42.096 70.6644 42.096 71.603C42.096 72.9684 41.8827 74.3337 41.456 75.699C41.0293 77.0217 40.816 78.4937 40.816 80.115ZM53.232 61.939C55.664 59.507 56.88 56.9684 56.88 54.323C56.88 53.5124 56.4533 52.8297 55.6 52.275C54.6613 51.763 53.68 51.507 52.656 51.507C50.352 51.507 48.688 52.2537 47.664 53.747C48.176 55.5817 48.9227 57.139 49.904 58.419C50.928 59.699 52.0373 60.8724 53.232 61.939ZM108.356 78.515C108.996 78.515 109.316 79.2404 109.316 80.691C109.316 83.7204 107.908 86.6644 105.092 89.523C102.276 92.339 98.8413 93.7684 94.788 93.811C91.9293 93.811 88.6227 92.6804 84.868 90.419C82.18 93.2777 78.8307 94.707 74.82 94.707C72.1747 94.707 70.2333 94.0457 68.996 92.723C67.7587 91.4004 67.14 89.651 67.14 87.475C67.14 85.299 67.9293 83.6777 69.508 82.611C71.1293 81.5017 73.1773 80.947 75.652 80.947C76.9747 80.947 78.212 81.011 79.364 81.139C79.364 75.9337 79.94 70.8564 81.092 65.907C79.684 65.1817 78.468 64.371 77.444 63.475C76.4627 62.579 75.972 61.875 75.972 61.363C75.972 59.9977 76.2707 59.315 76.868 59.315C77.7213 59.315 78.596 59.571 79.492 60.083C80.4307 60.5524 81.4333 60.915 82.5 61.171C85.1453 53.5337 88.772 48.6057 93.38 46.387C95.0013 45.619 96.708 45.235 98.5 45.235C105.241 45.235 108.612 48.0724 108.612 53.747C108.612 56.9897 107.396 59.7844 104.964 62.131C101.593 65.3737 96.4733 67.0804 89.604 67.251C89.1347 70.835 88.9 75.0804 88.9 79.987C88.9 81.1817 88.7507 82.5257 88.452 84.019C89.9453 84.787 91.396 85.491 92.804 86.131C94.212 86.771 95.94 87.091 97.988 87.091C99.0547 87.091 100.1 86.643 101.124 85.747C102.191 84.851 103.172 83.8697 104.068 82.803C105.007 81.7364 105.839 80.755 106.564 79.859C107.289 78.963 107.887 78.515 108.356 78.515ZM98.372 51.507C94.788 51.507 92.1853 54.9204 90.564 61.747C93.636 61.491 96.2173 60.6377 98.308 59.187C100.441 57.6937 101.508 56.2004 101.508 54.707C101.508 52.5737 100.463 51.507 98.372 51.507ZM73.348 87.923C73.3907 89.1177 74.2227 89.715 75.844 89.715C77.4653 89.715 78.4893 88.7764 78.916 86.899C77.7213 86.3017 76.74 86.003 75.972 86.003C74.2653 86.003 73.3907 86.643 73.348 87.923Z"/>
</mask>
<path d="M40.816 80.115C40.816 83.827 42.3947 85.683 45.552 85.683C49.008 85.683 51.3333 84.4884 52.528 82.099C52.9547 81.2457 53.168 80.1577 53.168 78.835C53.168 77.4697 52.848 76.211 52.208 75.059C51.1413 73.2244 49.3067 71.1977 46.704 68.979C42.3947 65.3097 40.24 61.5124 40.24 57.587C40.24 53.619 41.4773 50.5684 43.952 48.435C46.4267 46.3017 49.264 45.235 52.464 45.235C55.664 45.235 58.2027 46.0457 60.08 47.667C61.9573 49.2884 62.896 51.7204 62.896 54.963C62.896 57.0964 62.1707 58.9524 60.72 60.531C59.312 62.1097 57.4347 63.091 55.088 63.475C56.1547 64.371 57.2213 65.2884 58.288 66.227C59.312 67.1657 60.2507 68.1897 61.104 69.299C62.9813 71.8164 63.92 74.8244 63.92 78.323C63.92 80.755 63.344 82.9524 62.192 84.915C61.0827 86.8777 59.6107 88.5417 57.776 89.907C55.984 91.2297 53.9573 92.2537 51.696 92.979C49.4347 93.7044 47.3227 94.067 45.36 94.067C41.1787 94.067 37.936 93.107 35.632 91.187C32.944 89.011 31.6 85.875 31.6 81.779C31.6 79.091 32.4747 76.4884 34.224 73.971C35.9733 71.4537 37.8293 70.195 39.792 70.195C41.328 70.195 42.096 70.6644 42.096 71.603C42.096 72.9684 41.8827 74.3337 41.456 75.699C41.0293 77.0217 40.816 78.4937 40.816 80.115ZM53.232 61.939C55.664 59.507 56.88 56.9684 56.88 54.323C56.88 53.5124 56.4533 52.8297 55.6 52.275C54.6613 51.763 53.68 51.507 52.656 51.507C50.352 51.507 48.688 52.2537 47.664 53.747C48.176 55.5817 48.9227 57.139 49.904 58.419C50.928 59.699 52.0373 60.8724 53.232 61.939ZM108.356 78.515C108.996 78.515 109.316 79.2404 109.316 80.691C109.316 83.7204 107.908 86.6644 105.092 89.523C102.276 92.339 98.8413 93.7684 94.788 93.811C91.9293 93.811 88.6227 92.6804 84.868 90.419C82.18 93.2777 78.8307 94.707 74.82 94.707C72.1747 94.707 70.2333 94.0457 68.996 92.723C67.7587 91.4004 67.14 89.651 67.14 87.475C67.14 85.299 67.9293 83.6777 69.508 82.611C71.1293 81.5017 73.1773 80.947 75.652 80.947C76.9747 80.947 78.212 81.011 79.364 81.139C79.364 75.9337 79.94 70.8564 81.092 65.907C79.684 65.1817 78.468 64.371 77.444 63.475C76.4627 62.579 75.972 61.875 75.972 61.363C75.972 59.9977 76.2707 59.315 76.868 59.315C77.7213 59.315 78.596 59.571 79.492 60.083C80.4307 60.5524 81.4333 60.915 82.5 61.171C85.1453 53.5337 88.772 48.6057 93.38 46.387C95.0013 45.619 96.708 45.235 98.5 45.235C105.241 45.235 108.612 48.0724 108.612 53.747C108.612 56.9897 107.396 59.7844 104.964 62.131C101.593 65.3737 96.4733 67.0804 89.604 67.251C89.1347 70.835 88.9 75.0804 88.9 79.987C88.9 81.1817 88.7507 82.5257 88.452 84.019C89.9453 84.787 91.396 85.491 92.804 86.131C94.212 86.771 95.94 87.091 97.988 87.091C99.0547 87.091 100.1 86.643 101.124 85.747C102.191 84.851 103.172 83.8697 104.068 82.803C105.007 81.7364 105.839 80.755 106.564 79.859C107.289 78.963 107.887 78.515 108.356 78.515ZM98.372 51.507C94.788 51.507 92.1853 54.9204 90.564 61.747C93.636 61.491 96.2173 60.6377 98.308 59.187C100.441 57.6937 101.508 56.2004 101.508 54.707C101.508 52.5737 100.463 51.507 98.372 51.507ZM73.348 87.923C73.3907 89.1177 74.2227 89.715 75.844 89.715C77.4653 89.715 78.4893 88.7764 78.916 86.899C77.7213 86.3017 76.74 86.003 75.972 86.003C74.2653 86.003 73.3907 86.643 73.348 87.923Z" fill="black"/>
<path d="M52.528 82.099L53.4224 82.5463L53.4224 82.5463L52.528 82.099ZM52.208 75.059L53.0822 74.5734L53.0774 74.5649L53.0725 74.5564L52.208 75.059ZM46.704 68.979L47.3527 68.218L47.3523 68.2177L46.704 68.979ZM43.952 48.435L43.2991 47.6776L43.2991 47.6776L43.952 48.435ZM60.08 47.667L60.7336 46.9102L60.7336 46.9102L60.08 47.667ZM60.72 60.531L59.9837 59.8544L59.9786 59.8599L59.9737 59.8654L60.72 60.531ZM55.088 63.475L54.9265 62.4882L52.7771 62.8399L54.4448 64.2408L55.088 63.475ZM58.288 66.227L58.9637 65.4899L58.9562 65.483L58.9486 65.4763L58.288 66.227ZM61.104 69.299L61.9056 68.7012L61.9012 68.6952L61.8966 68.6893L61.104 69.299ZM62.192 84.915L61.3296 84.4088L61.3255 84.4159L61.3214 84.423L62.192 84.915ZM57.776 89.907L58.3699 90.7116L58.373 90.7093L57.776 89.907ZM51.696 92.979L51.3906 92.0268L51.696 92.979ZM35.632 91.187L36.2722 90.4188L36.2667 90.4143L36.2612 90.4098L35.632 91.187ZM34.224 73.971L35.0452 74.5417L34.224 73.971ZM41.456 75.699L42.4077 76.0061L42.4105 75.9973L41.456 75.699ZM53.232 61.939L52.566 62.685L53.2709 63.3144L53.9391 62.6462L53.232 61.939ZM55.6 52.275L56.145 51.4366L56.1127 51.4156L56.0789 51.3972L55.6 52.275ZM47.664 53.747L46.8393 53.1815L46.5754 53.5664L46.7008 54.0158L47.664 53.747ZM49.904 58.419L49.1104 59.0275L49.1167 59.0357L49.1231 59.0437L49.904 58.419ZM40.816 80.115H39.816C39.816 82.0892 40.2324 83.7563 41.2383 84.939C42.2705 86.1526 43.773 86.683 45.552 86.683V85.683V84.683C44.1736 84.683 43.3081 84.2855 42.7617 83.6431C42.189 82.9698 41.816 81.8529 41.816 80.115H40.816ZM45.552 85.683V86.683C49.2552 86.683 52.0066 85.3779 53.4224 82.5463L52.528 82.099L51.6336 81.6518C50.6601 83.5988 48.7608 84.683 45.552 84.683V85.683ZM52.528 82.099L53.4224 82.5463C53.94 81.5111 54.168 80.2564 54.168 78.835H53.168H52.168C52.168 80.059 51.9693 80.9804 51.6336 81.6518L52.528 82.099ZM53.168 78.835H54.168C54.168 77.3061 53.8077 75.8794 53.0822 74.5734L52.208 75.059L51.3338 75.5447C51.8883 76.5427 52.168 77.6333 52.168 78.835H53.168ZM52.208 75.059L53.0725 74.5564C51.9251 72.5828 49.9955 70.4709 47.3527 68.218L46.704 68.979L46.0553 69.7401C48.6179 71.9246 50.3576 73.866 51.3435 75.5617L52.208 75.059ZM46.704 68.979L47.3523 68.2177C43.1645 64.6519 41.24 61.108 41.24 57.587H40.24H39.24C39.24 61.9167 41.6248 65.9676 46.0557 69.7404L46.704 68.979ZM40.24 57.587H41.24C41.24 53.8418 42.3975 51.0954 44.6049 49.1925L43.952 48.435L43.2991 47.6776C40.5572 50.0413 39.24 53.3963 39.24 57.587H40.24ZM43.952 48.435L44.6049 49.1925C46.9023 47.212 49.5092 46.235 52.464 46.235V45.235V44.235C49.0188 44.235 45.9511 45.3914 43.2991 47.6776L43.952 48.435ZM52.464 45.235V46.235C55.4952 46.235 57.7782 47.0004 59.4264 48.4239L60.08 47.667L60.7336 46.9102C58.6272 45.091 55.8328 44.235 52.464 44.235V45.235ZM60.08 47.667L59.4264 48.4239C61.0207 49.8008 61.896 51.9159 61.896 54.963H62.896H63.896C63.896 51.5249 62.8939 48.7759 60.7336 46.9102L60.08 47.667ZM62.896 54.963H61.896C61.896 56.8444 61.2657 58.4593 59.9837 59.8544L60.72 60.531L61.4563 61.2077C63.0756 59.4455 63.896 57.3484 63.896 54.963H62.896ZM60.72 60.531L59.9737 59.8654C58.737 61.252 57.0769 62.1363 54.9265 62.4882L55.088 63.475L55.2495 64.4619C57.7924 64.0458 59.887 62.9674 61.4663 61.1967L60.72 60.531ZM55.088 63.475L54.4448 64.2408C55.5055 65.1317 56.5663 66.0441 57.6274 66.9778L58.288 66.227L58.9486 65.4763C57.8763 64.5327 56.8038 63.6104 55.7312 62.7093L55.088 63.475ZM58.288 66.227L57.6123 66.9642C58.5934 67.8635 59.493 68.8449 60.3114 69.9088L61.104 69.299L61.8966 68.6893C61.0083 67.5346 60.0306 66.4679 58.9637 65.4899L58.288 66.227ZM61.104 69.299L60.3024 69.8969C62.0363 72.2219 62.92 75.014 62.92 78.323H63.92H64.92C64.92 74.6348 63.9264 71.4109 61.9056 68.7012L61.104 69.299ZM63.92 78.323H62.92C62.92 80.5897 62.3853 82.6102 61.3296 84.4088L62.192 84.915L63.0544 85.4212C64.3027 83.2945 64.92 80.9204 64.92 78.323H63.92ZM62.192 84.915L61.3214 84.423C60.2817 86.2625 58.9035 87.8214 57.179 89.1048L57.776 89.907L58.373 90.7093C60.3178 89.262 61.8836 87.4929 63.0626 85.4071L62.192 84.915ZM57.776 89.907L57.1821 89.1025C55.4833 90.3564 53.5553 91.3325 51.3906 92.0268L51.696 92.979L52.0014 93.9313C54.3594 93.1749 56.4847 92.103 58.3699 90.7116L57.776 89.907ZM51.696 92.979L51.3906 92.0268C49.2079 92.7269 47.1999 93.067 45.36 93.067V94.067V95.067C47.4454 95.067 49.6614 94.6818 52.0014 93.9313L51.696 92.979ZM45.36 94.067V93.067C41.3213 93.067 38.337 92.1395 36.2722 90.4188L35.632 91.187L34.9918 91.9553C37.535 94.0746 41.036 95.067 45.36 95.067V94.067ZM35.632 91.187L36.2612 90.4098C33.852 88.4595 32.6 85.6352 32.6 81.779H31.6H30.6C30.6 86.1149 32.036 89.5626 35.0028 91.9643L35.632 91.187ZM31.6 81.779H32.6C32.6 79.3228 33.3953 76.9159 35.0452 74.5417L34.224 73.971L33.4028 73.4004C31.554 76.0609 30.6 78.8593 30.6 81.779H31.6ZM34.224 73.971L35.0452 74.5417C36.7161 72.1372 38.3095 71.195 39.792 71.195V70.195V69.195C37.3491 69.195 35.2305 70.7702 33.4028 73.4004L34.224 73.971ZM39.792 70.195V71.195C40.4907 71.195 40.8469 71.3076 40.9986 71.4003C41.0597 71.4377 41.0719 71.4619 41.0741 71.4659C41.0773 71.4718 41.096 71.5071 41.096 71.603H42.096H43.096C43.096 70.8035 42.7379 70.1194 42.0415 69.6938C41.4251 69.3171 40.6293 69.195 39.792 69.195V70.195ZM42.096 71.603H41.096C41.096 72.8625 40.8995 74.1274 40.5015 75.4008L41.456 75.699L42.4105 75.9973C42.8659 74.5401 43.096 73.0743 43.096 71.603H42.096ZM41.456 75.699L40.5043 75.392C40.0408 76.8288 39.816 78.4064 39.816 80.115H40.816H41.816C41.816 78.581 42.0179 77.2146 42.4077 76.0061L41.456 75.699ZM53.232 61.939L53.9391 62.6462C56.5 60.0853 57.88 57.3064 57.88 54.323H56.88H55.88C55.88 56.6303 54.828 58.9288 52.5249 61.2319L53.232 61.939ZM56.88 54.323H57.88C57.88 53.0861 57.1997 52.1221 56.145 51.4366L55.6 52.275L55.055 53.1135C55.707 53.5373 55.88 53.9387 55.88 54.323H56.88ZM55.6 52.275L56.0789 51.3972C55 50.8087 53.8548 50.507 52.656 50.507V51.507V52.507C53.5052 52.507 54.3226 52.7174 55.1211 53.1529L55.6 52.275ZM52.656 51.507V50.507C50.123 50.507 48.1002 51.3426 46.8393 53.1815L47.664 53.747L48.4887 54.3126C49.2758 53.1648 50.581 52.507 52.656 52.507V51.507ZM47.664 53.747L46.7008 54.0158C47.241 55.9517 48.0387 57.6296 49.1104 59.0275L49.904 58.419L50.6976 57.8106C49.8067 56.6485 49.111 55.2118 48.6272 53.4782L47.664 53.747ZM49.904 58.419L49.1231 59.0437C50.1812 60.3663 51.3288 61.5803 52.566 62.685L53.232 61.939L53.898 61.1931C52.7459 60.1644 51.6749 59.0318 50.6849 57.7944L49.904 58.419ZM105.092 89.523L105.799 90.2302L105.804 90.2248L105.092 89.523ZM94.788 93.811L94.788 94.8111L94.7985 94.811L94.788 93.811ZM84.868 90.419L85.3839 89.5624L84.6924 89.146L84.1395 89.734L84.868 90.419ZM68.996 92.723L68.2657 93.4062L68.2657 93.4062L68.996 92.723ZM69.508 82.611L70.0679 83.4397L70.0727 83.4364L69.508 82.611ZM79.364 81.139L79.2536 82.1329L80.364 82.2563V81.139H79.364ZM81.092 65.907L82.066 66.1337L82.2426 65.3749L81.55 65.0181L81.092 65.907ZM77.444 63.475L76.7697 64.2135L76.7775 64.2207L76.7855 64.2276L77.444 63.475ZM79.492 60.083L78.9959 60.9513L79.02 60.9651L79.0448 60.9775L79.492 60.083ZM82.5 61.171L82.2666 62.1434L83.1482 62.355L83.4449 61.4983L82.5 61.171ZM93.38 46.387L92.9519 45.4833L92.9462 45.486L93.38 46.387ZM104.964 62.131L105.657 62.8517L105.658 62.8507L104.964 62.131ZM89.604 67.251L89.5792 66.2514L88.7236 66.2726L88.6125 67.1212L89.604 67.251ZM88.452 84.019L87.4714 83.8229L87.3234 84.5631L87.9947 84.9083L88.452 84.019ZM92.804 86.131L92.3902 87.0414L92.3902 87.0414L92.804 86.131ZM101.124 85.747L100.481 84.9813L100.473 84.9878L100.465 84.9945L101.124 85.747ZM104.068 82.803L103.317 82.1424L103.31 82.1511L103.302 82.1599L104.068 82.803ZM106.564 79.859L107.341 80.4882L107.341 80.4882L106.564 79.859ZM90.564 61.747L89.5911 61.516L89.2723 62.8582L90.647 62.7436L90.564 61.747ZM98.308 59.187L98.8781 60.0086L98.8815 60.0063L98.308 59.187ZM73.348 87.923L72.3486 87.8897L72.3474 87.9242L72.3486 87.9587L73.348 87.923ZM78.916 86.899L79.8911 87.1207L80.065 86.3555L79.3632 86.0046L78.916 86.899ZM108.356 78.515V79.515C108.313 79.515 108.238 79.4981 108.173 79.4489C108.121 79.4094 108.129 79.3893 108.161 79.4627C108.236 79.6325 108.316 80.0083 108.316 80.691H109.316H110.316C110.316 79.9231 110.236 79.2109 109.991 78.6554C109.863 78.3662 109.671 78.0741 109.379 77.8532C109.074 77.6227 108.719 77.515 108.356 77.515V78.515ZM109.316 80.691H108.316C108.316 83.3812 107.073 86.087 104.38 88.8213L105.092 89.523L105.804 90.2248C108.743 87.2418 110.316 84.0596 110.316 80.691H109.316ZM105.092 89.523L104.385 88.8159C101.758 91.4433 98.5745 92.7711 94.7775 92.8111L94.788 93.811L94.7985 94.811C99.1082 94.7656 102.794 93.2348 105.799 90.2302L105.092 89.523ZM94.788 93.811V92.811C92.1835 92.811 89.0594 91.776 85.3839 89.5624L84.868 90.419L84.3521 91.2757C88.186 93.5847 91.6752 94.811 94.788 94.811V93.811ZM84.868 90.419L84.1395 89.734C81.6452 92.3867 78.5617 93.707 74.82 93.707V94.707V95.707C79.0997 95.707 82.7148 94.1687 85.5965 91.1041L84.868 90.419ZM74.82 94.707V93.707C72.3228 93.707 70.7017 93.0825 69.7263 92.0399L68.996 92.723L68.2657 93.4062C69.765 95.0089 72.0265 95.707 74.82 95.707V94.707ZM68.996 92.723L69.7263 92.0399C68.696 90.9386 68.14 89.4515 68.14 87.475H67.14H66.14C66.14 89.8506 66.8213 91.8622 68.2657 93.4062L68.996 92.723ZM67.14 87.475H68.14C68.14 85.5763 68.807 84.2916 70.0679 83.4396L69.508 82.611L68.9481 81.7825C67.0517 83.0639 66.14 85.0218 66.14 87.475H67.14ZM69.508 82.611L70.0727 83.4364C71.4891 82.4672 73.3264 81.947 75.652 81.947V80.947V79.947C73.0282 79.947 70.7695 80.5362 68.9433 81.7857L69.508 82.611ZM75.652 80.947V81.947C76.9428 81.947 78.1429 82.0095 79.2536 82.1329L79.364 81.139L79.4744 80.1452C78.2811 80.0126 77.0065 79.947 75.652 79.947V80.947ZM79.364 81.139H80.364C80.364 76.0082 80.9317 71.007 82.066 66.1337L81.092 65.907L80.118 65.6803C78.9483 70.7058 78.364 75.8593 78.364 81.139H79.364ZM81.092 65.907L81.55 65.0181C80.2026 64.324 79.0564 63.5572 78.1025 62.7225L77.444 63.475L76.7855 64.2276C77.8796 65.1849 79.1654 66.0394 80.634 66.796L81.092 65.907ZM77.444 63.475L78.1183 62.7366C77.656 62.3145 77.3469 61.9709 77.1604 61.7033C76.9608 61.4169 76.972 61.318 76.972 61.363H75.972H74.972C74.972 61.9201 75.2285 62.4292 75.5196 62.8468C75.8237 63.2832 76.2507 63.7396 76.7697 64.2135L77.444 63.475ZM75.972 61.363H76.972C76.972 60.7225 77.0467 60.3775 77.1122 60.2279C77.1399 60.1643 77.142 60.1928 77.082 60.2385C77.0089 60.2942 76.9235 60.315 76.868 60.315V59.315V58.315C76.5139 58.315 76.1671 58.4212 75.87 58.6476C75.586 58.864 75.4014 59.1484 75.2798 59.4262C75.0466 59.9593 74.972 60.6383 74.972 61.363H75.972ZM76.868 59.315V60.315C77.5142 60.315 78.2194 60.5076 78.9959 60.9513L79.492 60.083L79.9881 59.2148C78.9726 58.6345 77.9284 58.315 76.868 58.315V59.315ZM79.492 60.083L79.0448 60.9775C80.0545 61.4824 81.1293 61.8705 82.2666 62.1434L82.5 61.171L82.7334 60.1987C81.7374 59.9596 80.8068 59.6224 79.9392 59.1886L79.492 60.083ZM82.5 61.171L83.4449 61.4983C86.0521 53.9712 89.5534 49.3393 93.8138 47.288L93.38 46.387L92.9462 45.486C87.9906 47.8721 84.2386 53.0962 81.5551 60.8438L82.5 61.171ZM93.38 46.387L93.8081 47.2908C95.2958 46.5861 96.8562 46.235 98.5 46.235V45.235V44.235C96.5598 44.235 94.7069 44.652 92.9519 45.4833L93.38 46.387ZM98.5 45.235V46.235C101.755 46.235 104.009 46.9235 105.44 48.1281C106.838 49.3049 107.612 51.1134 107.612 53.747H108.612H109.612C109.612 50.7061 108.701 48.2586 106.728 46.598C104.788 44.9652 101.987 44.235 98.5 44.235V45.235ZM108.612 53.747H107.612C107.612 56.7057 106.516 59.2443 104.27 61.4114L104.964 62.131L105.658 62.8507C108.276 60.3245 109.612 57.2737 109.612 53.747H108.612ZM104.964 62.131L104.271 61.4104C101.149 64.4137 96.3139 66.084 89.5792 66.2514L89.604 67.251L89.6288 68.2507C96.6328 68.0767 102.038 66.3337 105.657 62.8517L104.964 62.131ZM89.604 67.251L88.6125 67.1212C88.1359 70.7604 87.9 75.0512 87.9 79.987H88.9H89.9C89.9 75.1096 90.1334 70.9097 90.5955 67.3809L89.604 67.251ZM88.9 79.987H87.9C87.9 81.1008 87.7605 82.3775 87.4714 83.8229L88.452 84.019L89.4326 84.2152C89.7408 82.6739 89.9 81.2626 89.9 79.987H88.9ZM88.452 84.019L87.9947 84.9083C89.5011 85.6831 90.9663 86.3942 92.3902 87.0414L92.804 86.131L93.2178 85.2207C91.8257 84.5879 90.3895 83.891 88.9093 83.1298L88.452 84.019ZM92.804 86.131L92.3902 87.0414C93.963 87.7563 95.8413 88.091 97.988 88.091V87.091V86.091C96.0387 86.091 94.461 85.7858 93.2178 85.2207L92.804 86.131ZM97.988 87.091V88.091C99.3577 88.091 100.628 87.5099 101.783 86.4996L101.124 85.747L100.465 84.9945C99.5721 85.7762 98.7516 86.091 97.988 86.091V87.091ZM101.124 85.747L101.767 86.5128C102.878 85.5795 103.9 84.5572 104.834 83.4462L104.068 82.803L103.302 82.1599C102.444 83.1822 101.503 84.1226 100.481 84.9813L101.124 85.747ZM104.068 82.803L104.819 83.4637C105.764 82.389 106.606 81.397 107.341 80.4882L106.564 79.859L105.787 79.2299C105.072 80.1131 104.249 81.0838 103.317 82.1424L104.068 82.803ZM106.564 79.859L107.341 80.4882C107.677 80.0736 107.949 79.8065 108.156 79.651C108.377 79.4857 108.432 79.515 108.356 79.515V78.515V77.515C107.811 77.515 107.333 77.7684 106.956 78.051C106.566 78.3436 106.176 78.7485 105.787 79.2299L106.564 79.859ZM98.372 51.507V50.507C96.2048 50.507 94.3854 51.561 92.9368 53.4607C91.5135 55.3273 90.416 58.0424 89.5911 61.516L90.564 61.747L91.5369 61.9781C92.3333 58.6251 93.3478 56.2201 94.5272 54.6734C95.6813 53.1598 96.9552 52.507 98.372 52.507V51.507ZM90.564 61.747L90.647 62.7436C93.857 62.4761 96.6156 61.5785 98.8781 60.0086L98.308 59.187L97.7379 58.3655C95.8191 59.6969 93.415 60.506 90.481 60.7505L90.564 61.747ZM98.308 59.187L98.8815 60.0063C101.087 58.4625 102.508 56.7084 102.508 54.707H101.508H100.508C100.508 55.6923 99.7959 56.9249 97.7345 58.3678L98.308 59.187ZM101.508 54.707H102.508C102.508 53.4913 102.21 52.3948 101.438 51.6071C100.663 50.8157 99.5767 50.507 98.372 50.507V51.507V52.507C99.258 52.507 99.74 52.7317 100.01 53.007C100.283 53.286 100.508 53.7895 100.508 54.707H101.508ZM73.348 87.923L72.3486 87.9587C72.3789 88.8071 72.7095 89.5687 73.4208 90.0794C74.0799 90.5526 74.937 90.715 75.844 90.715V89.715V88.715C75.1297 88.715 74.7601 88.5788 74.5872 88.4547C74.4665 88.3681 74.3597 88.2337 74.3474 87.8874L73.348 87.923ZM75.844 89.715V90.715C76.8603 90.715 77.7769 90.4145 78.5037 89.7482C79.2134 89.0977 79.6496 88.1834 79.8911 87.1207L78.916 86.899L77.9409 86.6774C77.7557 87.4921 77.4666 87.9857 77.1523 88.2739C76.8551 88.5463 76.449 88.715 75.844 88.715V89.715ZM78.916 86.899L79.3632 86.0046C78.1181 85.3821 76.9706 85.003 75.972 85.003V86.003V87.003C76.5094 87.003 77.3246 87.2214 78.4688 87.7935L78.916 86.899ZM75.972 86.003V85.003C75.0198 85.003 74.1274 85.1771 73.4455 85.676C72.7138 86.2114 72.378 87.0052 72.3486 87.8897L73.348 87.923L74.3474 87.9564C74.3606 87.5609 74.4835 87.3947 74.6265 87.2901C74.8193 87.149 75.2176 87.003 75.972 87.003V86.003Z" fill="white" mask="url(#path-4-outside-1_5_34)"/>
</g>
<defs>
<filter id="filter0_d_5_34" x="0.9" y="0.9" width="144.2" height="140.2" filterUnits="userSpaceOnUse" color-interpolation-filters="sRGB">
<feFlood flood-opacity="0" result="BackgroundImageFix"/>
<feColorMatrix in="SourceAlpha" type="matrix" values="0 0 0 0 0 0 0 0 0 0 0 0 0 0 0 0 0 0 127 0" result="hardAlpha"/>
<feMorphology radius="0.4" operator="dilate" in="SourceAlpha" result="effect1_dropShadow_5_34"/>
<feOffset/>
<feGaussianBlur stdDeviation="4.35"/>
<feComposite in2="hardAlpha" operator="out"/>
<feColorMatrix type="matrix" values="0 0 0 0 1 0 0 0 0 1 0 0 0 0 1 0 0 0 0.94 0"/>
<feBlend mode="normal" in2="BackgroundImageFix" result="effect1_dropShadow_5_34"/>
<feBlend mode="normal" in="SourceGraphic" in2="effect1_dropShadow_5_34" result="shape"/>
</filter>
<filter id="filter1_d_5_34" x="3.40001" y="19.035" width="138.116" height="109.872" filterUnits="userSpaceOnUse" color-interpolation-filters="sRGB">
<feFlood flood-opacity="0" result="BackgroundImageFix"/>
<feColorMatrix in="SourceAlpha" type="matrix" values="0 0 0 0 0 0 0 0 0 0 0 0 0 0 0 0 0 0 127 0" result="hardAlpha"/>
<feOffset dx="2" dy="4"/>
<feGaussianBlur stdDeviation="14.6"/>
<feComposite in2="hardAlpha" operator="out"/>
<feColorMatrix type="matrix" values="0 0 0 0 1 0 0 0 0 1 0 0 0 0 1 0 0 0 0.43 0"/>
<feBlend mode="normal" in2="BackgroundImageFix" result="effect1_dropShadow_5_34"/>
<feBlend mode="normal" in="SourceGraphic" in2="effect1_dropShadow_5_34" result="shape"/>
</filter>
</defs>
</svg>
